<mxfile host="app.diagrams.net" agent="Mozilla/5.0 (Windows NT 10.0; Win64; x64) AppleWebKit/537.36 (KHTML, like Gecko) Chrome/132.0.0.0 Safari/537.36" version="26.0.10">
  <diagram name="หน้า-1" id="YxEEI1bT5sU3l4kuovY4">
    <mxGraphModel grid="0" page="1" gridSize="10" guides="1" tooltips="1" connect="1" arrows="1" fold="1" pageScale="1" pageWidth="827" pageHeight="1169" math="0" shadow="0">
      <root>
        <mxCell id="0" />
        <mxCell id="1" parent="0" />
        <mxCell id="IXhrhNygmsRbhNOw2Itl-1" value="Manager" style="shape=umlActor;verticalLabelPosition=bottom;verticalAlign=top;html=1;outlineConnect=0;" vertex="1" parent="1">
          <mxGeometry x="192" y="70" width="45" height="90" as="geometry" />
        </mxCell>
        <mxCell id="IXhrhNygmsRbhNOw2Itl-2" value="" style="whiteSpace=wrap;html=1;aspect=fixed;" vertex="1" parent="1">
          <mxGeometry x="287.2800000000001" y="60" width="309.23" height="309.23" as="geometry" />
        </mxCell>
        <mxCell id="IXhrhNygmsRbhNOw2Itl-3" value="View" style="ellipse;whiteSpace=wrap;html=1;horizontal=1;verticalAlign=middle;" vertex="1" parent="1">
          <mxGeometry x="393.5" y="120" width="99.95" height="50" as="geometry" />
        </mxCell>
        <mxCell id="IXhrhNygmsRbhNOw2Itl-4" value="" style="endArrow=classic;html=1;rounded=0;entryX=0;entryY=0.5;entryDx=0;entryDy=0;exitX=1;exitY=0.3333333333333333;exitDx=0;exitDy=0;exitPerimeter=0;" edge="1" parent="1" source="IXhrhNygmsRbhNOw2Itl-1" target="IXhrhNygmsRbhNOw2Itl-3">
          <mxGeometry width="50" height="50" relative="1" as="geometry">
            <mxPoint x="173.37000000000006" y="240.38" as="sourcePoint" />
            <mxPoint x="223.37000000000006" y="190.38" as="targetPoint" />
          </mxGeometry>
        </mxCell>
        <mxCell id="IXhrhNygmsRbhNOw2Itl-5" value="Cashier" style="shape=umlActor;verticalLabelPosition=bottom;verticalAlign=top;html=1;outlineConnect=0;" vertex="1" parent="1">
          <mxGeometry x="189.50000000000006" y="227" width="50" height="94.54" as="geometry" />
        </mxCell>
        <mxCell id="IXhrhNygmsRbhNOw2Itl-6" value="Create Billed" style="ellipse;whiteSpace=wrap;html=1;horizontal=1;verticalAlign=middle;" vertex="1" parent="1">
          <mxGeometry x="391.9200000000001" y="275.46000000000004" width="99.95" height="54" as="geometry" />
        </mxCell>
        <mxCell id="IXhrhNygmsRbhNOw2Itl-7" value="Set Service charge" style="ellipse;whiteSpace=wrap;html=1;horizontal=1;verticalAlign=middle;" vertex="1" parent="1">
          <mxGeometry x="391.9200000000001" y="199.52999999999997" width="99.95" height="50" as="geometry" />
        </mxCell>
        <mxCell id="IXhrhNygmsRbhNOw2Itl-8" value="" style="endArrow=classic;html=1;rounded=0;exitX=1;exitY=0.3333333333333333;exitDx=0;exitDy=0;exitPerimeter=0;entryX=0;entryY=0.5;entryDx=0;entryDy=0;" edge="1" parent="1" source="IXhrhNygmsRbhNOw2Itl-5" target="IXhrhNygmsRbhNOw2Itl-6">
          <mxGeometry width="50" height="50" relative="1" as="geometry">
            <mxPoint x="290.33000000000004" y="270" as="sourcePoint" />
            <mxPoint x="490.33000000000004" y="225" as="targetPoint" />
          </mxGeometry>
        </mxCell>
        <mxCell id="IXhrhNygmsRbhNOw2Itl-9" value="Billing Management System" style="text;html=1;strokeColor=none;fillColor=none;align=center;verticalAlign=middle;whiteSpace=wrap;rounded=0;fontStyle=1" vertex="1" parent="1">
          <mxGeometry x="354.91" y="70" width="177.13" height="30" as="geometry" />
        </mxCell>
        <mxCell id="IXhrhNygmsRbhNOw2Itl-10" value="" style="endArrow=classic;html=1;rounded=0;entryX=0;entryY=0.5;entryDx=0;entryDy=0;exitX=1;exitY=0.3333333333333333;exitDx=0;exitDy=0;exitPerimeter=0;" edge="1" parent="1" source="IXhrhNygmsRbhNOw2Itl-1" target="IXhrhNygmsRbhNOw2Itl-7">
          <mxGeometry width="50" height="50" relative="1" as="geometry">
            <mxPoint x="490.33000000000004" y="220" as="sourcePoint" />
            <mxPoint x="540.33" y="170" as="targetPoint" />
          </mxGeometry>
        </mxCell>
        <mxCell id="h34QpS5Brzwt2sbCfRC8-22" value="" style="whiteSpace=wrap;html=1;aspect=fixed;rotation=0;" vertex="1" parent="1">
          <mxGeometry x="275.07" y="557.61" width="321.44" height="500.39" as="geometry" />
        </mxCell>
        <mxCell id="h34QpS5Brzwt2sbCfRC8-23" value="Manager" style="shape=umlActor;verticalLabelPosition=bottom;verticalAlign=top;html=1;outlineConnect=0;" vertex="1" parent="1">
          <mxGeometry x="139.5" y="640" width="50" height="90" as="geometry" />
        </mxCell>
        <mxCell id="h34QpS5Brzwt2sbCfRC8-25" value="Edit Menu" style="ellipse;whiteSpace=wrap;html=1;" vertex="1" parent="1">
          <mxGeometry x="377.71" y="710" width="131.53" height="60" as="geometry" />
        </mxCell>
        <mxCell id="h34QpS5Brzwt2sbCfRC8-26" value="Add Menu" style="ellipse;whiteSpace=wrap;html=1;" vertex="1" parent="1">
          <mxGeometry x="377.71" y="790" width="131.53" height="60" as="geometry" />
        </mxCell>
        <mxCell id="h34QpS5Brzwt2sbCfRC8-27" value="Remove Menu" style="ellipse;whiteSpace=wrap;html=1;" vertex="1" parent="1">
          <mxGeometry x="377.71" y="870" width="131.53" height="60" as="geometry" />
        </mxCell>
        <mxCell id="h34QpS5Brzwt2sbCfRC8-30" value="" style="endArrow=classic;html=1;rounded=0;entryX=0;entryY=0.5;entryDx=0;entryDy=0;" edge="1" parent="1" target="h34QpS5Brzwt2sbCfRC8-25">
          <mxGeometry width="50" height="50" relative="1" as="geometry">
            <mxPoint x="190" y="670" as="sourcePoint" />
            <mxPoint x="260" y="860" as="targetPoint" />
          </mxGeometry>
        </mxCell>
        <mxCell id="h34QpS5Brzwt2sbCfRC8-31" value="" style="endArrow=classic;html=1;rounded=0;exitX=1;exitY=0.3333333333333333;exitDx=0;exitDy=0;exitPerimeter=0;entryX=0;entryY=0.5;entryDx=0;entryDy=0;" edge="1" parent="1" source="h34QpS5Brzwt2sbCfRC8-23" target="h34QpS5Brzwt2sbCfRC8-26">
          <mxGeometry width="50" height="50" relative="1" as="geometry">
            <mxPoint x="220" y="925" as="sourcePoint" />
            <mxPoint x="270" y="875" as="targetPoint" />
          </mxGeometry>
        </mxCell>
        <mxCell id="h34QpS5Brzwt2sbCfRC8-32" value="" style="endArrow=classic;html=1;rounded=0;exitX=1;exitY=0.3333333333333333;exitDx=0;exitDy=0;exitPerimeter=0;entryX=0;entryY=0.5;entryDx=0;entryDy=0;" edge="1" parent="1" source="h34QpS5Brzwt2sbCfRC8-23" target="h34QpS5Brzwt2sbCfRC8-27">
          <mxGeometry width="50" height="50" relative="1" as="geometry">
            <mxPoint x="380" y="860" as="sourcePoint" />
            <mxPoint x="430" y="810" as="targetPoint" />
          </mxGeometry>
        </mxCell>
        <mxCell id="h34QpS5Brzwt2sbCfRC8-34" value="View" style="ellipse;whiteSpace=wrap;html=1;" vertex="1" parent="1">
          <mxGeometry x="376.13000000000005" y="950" width="131.53" height="60" as="geometry" />
        </mxCell>
        <mxCell id="h34QpS5Brzwt2sbCfRC8-35" value="Server" style="shape=umlActor;verticalLabelPosition=bottom;verticalAlign=top;html=1;outlineConnect=0;" vertex="1" parent="1">
          <mxGeometry x="139.5" y="795" width="50" height="90" as="geometry" />
        </mxCell>
        <mxCell id="h34QpS5Brzwt2sbCfRC8-37" value="" style="endArrow=classic;html=1;rounded=0;entryX=0;entryY=0.5;entryDx=0;entryDy=0;" edge="1" parent="1" target="h34QpS5Brzwt2sbCfRC8-34">
          <mxGeometry width="50" height="50" relative="1" as="geometry">
            <mxPoint x="190" y="670" as="sourcePoint" />
            <mxPoint x="180" y="815" as="targetPoint" />
          </mxGeometry>
        </mxCell>
        <mxCell id="h34QpS5Brzwt2sbCfRC8-40" value="" style="endArrow=classic;html=1;rounded=0;entryX=0;entryY=0.5;entryDx=0;entryDy=0;exitX=1;exitY=0.3333333333333333;exitDx=0;exitDy=0;exitPerimeter=0;" edge="1" parent="1" source="h34QpS5Brzwt2sbCfRC8-35" target="h34QpS5Brzwt2sbCfRC8-34">
          <mxGeometry width="50" height="50" relative="1" as="geometry">
            <mxPoint x="380" y="860" as="sourcePoint" />
            <mxPoint x="430" y="810" as="targetPoint" />
          </mxGeometry>
        </mxCell>
        <mxCell id="h34QpS5Brzwt2sbCfRC8-43" style="edgeStyle=orthogonalEdgeStyle;rounded=0;orthogonalLoop=1;jettySize=auto;html=1;exitX=1;exitY=0.3333333333333333;exitDx=0;exitDy=0;exitPerimeter=0;entryX=0;entryY=0.5;entryDx=0;entryDy=0;" edge="1" parent="1" source="h34QpS5Brzwt2sbCfRC8-41" target="h34QpS5Brzwt2sbCfRC8-34">
          <mxGeometry relative="1" as="geometry" />
        </mxCell>
        <mxCell id="h34QpS5Brzwt2sbCfRC8-41" value="Chef" style="shape=umlActor;verticalLabelPosition=bottom;verticalAlign=top;html=1;outlineConnect=0;" vertex="1" parent="1">
          <mxGeometry x="139.5" y="950" width="50" height="90" as="geometry" />
        </mxCell>
        <mxCell id="h34QpS5Brzwt2sbCfRC8-44" value="Customer" style="shape=umlActor;verticalLabelPosition=bottom;verticalAlign=top;html=1;outlineConnect=0;" vertex="1" parent="1">
          <mxGeometry x="670" y="795" width="50" height="90" as="geometry" />
        </mxCell>
        <mxCell id="h34QpS5Brzwt2sbCfRC8-46" value="" style="endArrow=classic;html=1;rounded=0;entryX=1;entryY=0.5;entryDx=0;entryDy=0;exitX=0;exitY=0.3333333333333333;exitDx=0;exitDy=0;exitPerimeter=0;" edge="1" parent="1" source="h34QpS5Brzwt2sbCfRC8-44" target="h34QpS5Brzwt2sbCfRC8-34">
          <mxGeometry width="50" height="50" relative="1" as="geometry">
            <mxPoint x="590" y="865" as="sourcePoint" />
            <mxPoint x="640" y="815" as="targetPoint" />
          </mxGeometry>
        </mxCell>
        <mxCell id="h34QpS5Brzwt2sbCfRC8-48" style="edgeStyle=orthogonalEdgeStyle;rounded=0;orthogonalLoop=1;jettySize=auto;html=1;exitX=0;exitY=0.3333333333333333;exitDx=0;exitDy=0;exitPerimeter=0;entryX=1;entryY=0.5;entryDx=0;entryDy=0;" edge="1" parent="1" source="h34QpS5Brzwt2sbCfRC8-47" target="h34QpS5Brzwt2sbCfRC8-34">
          <mxGeometry relative="1" as="geometry" />
        </mxCell>
        <mxCell id="h34QpS5Brzwt2sbCfRC8-47" value="Cashier" style="shape=umlActor;verticalLabelPosition=bottom;verticalAlign=top;html=1;outlineConnect=0;" vertex="1" parent="1">
          <mxGeometry x="670" y="950" width="50" height="90" as="geometry" />
        </mxCell>
        <mxCell id="h34QpS5Brzwt2sbCfRC8-51" value="Menu Management System" style="text;html=1;strokeColor=none;fillColor=none;align=center;verticalAlign=middle;whiteSpace=wrap;rounded=0;fontStyle=1" vertex="1" parent="1">
          <mxGeometry x="353.33" y="583" width="177.13" height="30" as="geometry" />
        </mxCell>
        <mxCell id="h34QpS5Brzwt2sbCfRC8-52" value="" style="shape=table;startSize=0;container=1;collapsible=0;childLayout=tableLayout;" vertex="1" parent="1">
          <mxGeometry x="1887" y="78" width="375" height="637.352325439453" as="geometry" />
        </mxCell>
        <mxCell id="h34QpS5Brzwt2sbCfRC8-53" value="" style="shape=tableRow;horizontal=0;startSize=0;swimlaneHead=0;swimlaneBody=0;strokeColor=inherit;top=0;left=0;bottom=0;right=0;collapsible=0;dropTarget=0;fillColor=none;points=[[0,0.5],[1,0.5]];portConstraint=eastwest;" vertex="1" parent="h34QpS5Brzwt2sbCfRC8-52">
          <mxGeometry width="375" height="58" as="geometry" />
        </mxCell>
        <mxCell id="h34QpS5Brzwt2sbCfRC8-54" value="Manager" style="shape=partialRectangle;html=1;whiteSpace=wrap;connectable=0;strokeColor=inherit;overflow=hidden;fillColor=none;top=0;left=0;bottom=0;right=0;pointerEvents=1;fontSize=15;" vertex="1" parent="h34QpS5Brzwt2sbCfRC8-53">
          <mxGeometry width="188" height="58" as="geometry">
            <mxRectangle width="188" height="58" as="alternateBounds" />
          </mxGeometry>
        </mxCell>
        <mxCell id="h34QpS5Brzwt2sbCfRC8-55" value="System" style="shape=partialRectangle;html=1;whiteSpace=wrap;connectable=0;strokeColor=inherit;overflow=hidden;fillColor=none;top=0;left=0;bottom=0;right=0;pointerEvents=1;fontSize=15;" vertex="1" parent="h34QpS5Brzwt2sbCfRC8-53">
          <mxGeometry x="188" width="187" height="58" as="geometry">
            <mxRectangle width="187" height="58" as="alternateBounds" />
          </mxGeometry>
        </mxCell>
        <mxCell id="h34QpS5Brzwt2sbCfRC8-58" value="" style="shape=tableRow;horizontal=0;startSize=0;swimlaneHead=0;swimlaneBody=0;strokeColor=inherit;top=0;left=0;bottom=0;right=0;collapsible=0;dropTarget=0;fillColor=none;points=[[0,0.5],[1,0.5]];portConstraint=eastwest;" vertex="1" parent="h34QpS5Brzwt2sbCfRC8-52">
          <mxGeometry y="58" width="375" height="579" as="geometry" />
        </mxCell>
        <mxCell id="h34QpS5Brzwt2sbCfRC8-59" value="" style="shape=partialRectangle;html=1;whiteSpace=wrap;connectable=0;strokeColor=inherit;overflow=hidden;fillColor=none;top=0;left=0;bottom=0;right=0;pointerEvents=1;" vertex="1" parent="h34QpS5Brzwt2sbCfRC8-58">
          <mxGeometry width="188" height="579" as="geometry">
            <mxRectangle width="188" height="579" as="alternateBounds" />
          </mxGeometry>
        </mxCell>
        <mxCell id="h34QpS5Brzwt2sbCfRC8-60" value="" style="shape=partialRectangle;html=1;whiteSpace=wrap;connectable=0;strokeColor=inherit;overflow=hidden;fillColor=none;top=0;left=0;bottom=0;right=0;pointerEvents=1;" vertex="1" parent="h34QpS5Brzwt2sbCfRC8-58">
          <mxGeometry x="188" width="187" height="579" as="geometry">
            <mxRectangle width="187" height="579" as="alternateBounds" />
          </mxGeometry>
        </mxCell>
        <mxCell id="h34QpS5Brzwt2sbCfRC8-63" value="Set Categories" style="ellipse;whiteSpace=wrap;html=1;" vertex="1" parent="1">
          <mxGeometry x="376.13" y="630" width="131.53" height="60" as="geometry" />
        </mxCell>
        <mxCell id="h34QpS5Brzwt2sbCfRC8-65" value="" style="endArrow=classic;html=1;rounded=0;entryX=0;entryY=0.5;entryDx=0;entryDy=0;" edge="1" parent="1" target="h34QpS5Brzwt2sbCfRC8-63">
          <mxGeometry width="50" height="50" relative="1" as="geometry">
            <mxPoint x="190" y="670" as="sourcePoint" />
            <mxPoint x="239.5" y="600" as="targetPoint" />
          </mxGeometry>
        </mxCell>
        <mxCell id="GRJCn4sYlswHCaF_muZq-1" value="Activity Diagram" style="text;html=1;strokeColor=none;fillColor=none;align=center;verticalAlign=middle;whiteSpace=wrap;rounded=0;fontStyle=1;fontSize=64;" vertex="1" parent="1">
          <mxGeometry x="850" y="60" width="765" height="30" as="geometry" />
        </mxCell>
        <mxCell id="GRJCn4sYlswHCaF_muZq-3" value="Billing System" style="text;html=1;strokeColor=none;fillColor=none;align=center;verticalAlign=middle;whiteSpace=wrap;rounded=0;fontSize=48;" vertex="1" parent="1">
          <mxGeometry x="1017.5" y="199.62" width="430" height="30" as="geometry" />
        </mxCell>
        <mxCell id="GRJCn4sYlswHCaF_muZq-4" value="" style="shape=flexArrow;endArrow=classic;html=1;rounded=0;" edge="1" parent="1">
          <mxGeometry width="50" height="50" relative="1" as="geometry">
            <mxPoint x="1447.5" y="220" as="sourcePoint" />
            <mxPoint x="1540" y="220" as="targetPoint" />
          </mxGeometry>
        </mxCell>
        <mxCell id="GRJCn4sYlswHCaF_muZq-5" value="View Billed" style="text;html=1;strokeColor=none;fillColor=none;align=center;verticalAlign=middle;whiteSpace=wrap;rounded=0;" vertex="1" parent="1">
          <mxGeometry x="1887" y="48" width="88" height="30" as="geometry" />
        </mxCell>
        <mxCell id="fmuekxSxBBkvDe3AGFHN-52" style="edgeStyle=orthogonalEdgeStyle;rounded=0;orthogonalLoop=1;jettySize=auto;html=1;exitX=0.5;exitY=1;exitDx=0;exitDy=0;entryX=0.5;entryY=0;entryDx=0;entryDy=0;" edge="1" parent="1" source="fmuekxSxBBkvDe3AGFHN-1" target="fmuekxSxBBkvDe3AGFHN-2">
          <mxGeometry relative="1" as="geometry" />
        </mxCell>
        <mxCell id="fmuekxSxBBkvDe3AGFHN-1" value="" style="ellipse;whiteSpace=wrap;html=1;aspect=fixed;fillColor=#000000;" vertex="1" parent="1">
          <mxGeometry x="1955" y="158" width="50" height="50" as="geometry" />
        </mxCell>
        <mxCell id="fmuekxSxBBkvDe3AGFHN-56" style="edgeStyle=orthogonalEdgeStyle;rounded=0;orthogonalLoop=1;jettySize=auto;html=1;exitX=1;exitY=0.5;exitDx=0;exitDy=0;entryX=0.5;entryY=0;entryDx=0;entryDy=0;" edge="1" parent="1" source="fmuekxSxBBkvDe3AGFHN-2" target="fmuekxSxBBkvDe3AGFHN-3">
          <mxGeometry relative="1" as="geometry" />
        </mxCell>
        <mxCell id="fmuekxSxBBkvDe3AGFHN-2" value="View Billed" style="rounded=1;whiteSpace=wrap;html=1;" vertex="1" parent="1">
          <mxGeometry x="1920" y="272.46000000000004" width="120" height="60" as="geometry" />
        </mxCell>
        <mxCell id="fmuekxSxBBkvDe3AGFHN-57" style="edgeStyle=orthogonalEdgeStyle;rounded=0;orthogonalLoop=1;jettySize=auto;html=1;exitX=0;exitY=0.5;exitDx=0;exitDy=0;" edge="1" parent="1" source="fmuekxSxBBkvDe3AGFHN-3" target="fmuekxSxBBkvDe3AGFHN-55">
          <mxGeometry relative="1" as="geometry" />
        </mxCell>
        <mxCell id="fmuekxSxBBkvDe3AGFHN-3" value="Retrieve Billed data" style="rounded=1;whiteSpace=wrap;html=1;" vertex="1" parent="1">
          <mxGeometry x="2112" y="366" width="120" height="60" as="geometry" />
        </mxCell>
        <mxCell id="fmuekxSxBBkvDe3AGFHN-4" value="" style="shape=table;startSize=0;container=1;collapsible=0;childLayout=tableLayout;" vertex="1" parent="1">
          <mxGeometry x="2747" y="78" width="375" height="1001.1136474609375" as="geometry" />
        </mxCell>
        <mxCell id="fmuekxSxBBkvDe3AGFHN-5" value="" style="shape=tableRow;horizontal=0;startSize=0;swimlaneHead=0;swimlaneBody=0;strokeColor=inherit;top=0;left=0;bottom=0;right=0;collapsible=0;dropTarget=0;fillColor=none;points=[[0,0.5],[1,0.5]];portConstraint=eastwest;" vertex="1" parent="fmuekxSxBBkvDe3AGFHN-4">
          <mxGeometry width="375" height="58" as="geometry" />
        </mxCell>
        <mxCell id="fmuekxSxBBkvDe3AGFHN-6" value="Cashier" style="shape=partialRectangle;html=1;whiteSpace=wrap;connectable=0;strokeColor=inherit;overflow=hidden;fillColor=none;top=0;left=0;bottom=0;right=0;pointerEvents=1;fontSize=15;" vertex="1" parent="fmuekxSxBBkvDe3AGFHN-5">
          <mxGeometry width="188" height="58" as="geometry">
            <mxRectangle width="188" height="58" as="alternateBounds" />
          </mxGeometry>
        </mxCell>
        <mxCell id="fmuekxSxBBkvDe3AGFHN-7" value="&lt;font style=&quot;font-size: 15px;&quot;&gt;System&lt;/font&gt;" style="shape=partialRectangle;html=1;whiteSpace=wrap;connectable=0;strokeColor=inherit;overflow=hidden;fillColor=none;top=0;left=0;bottom=0;right=0;pointerEvents=1;" vertex="1" parent="fmuekxSxBBkvDe3AGFHN-5">
          <mxGeometry x="188" width="187" height="58" as="geometry">
            <mxRectangle width="187" height="58" as="alternateBounds" />
          </mxGeometry>
        </mxCell>
        <mxCell id="fmuekxSxBBkvDe3AGFHN-8" value="" style="shape=tableRow;horizontal=0;startSize=0;swimlaneHead=0;swimlaneBody=0;strokeColor=inherit;top=0;left=0;bottom=0;right=0;collapsible=0;dropTarget=0;fillColor=none;points=[[0,0.5],[1,0.5]];portConstraint=eastwest;" vertex="1" parent="fmuekxSxBBkvDe3AGFHN-4">
          <mxGeometry y="58" width="375" height="943" as="geometry" />
        </mxCell>
        <mxCell id="fmuekxSxBBkvDe3AGFHN-9" value="" style="shape=partialRectangle;html=1;whiteSpace=wrap;connectable=0;strokeColor=inherit;overflow=hidden;fillColor=none;top=0;left=0;bottom=0;right=0;pointerEvents=1;" vertex="1" parent="fmuekxSxBBkvDe3AGFHN-8">
          <mxGeometry width="188" height="943" as="geometry">
            <mxRectangle width="188" height="943" as="alternateBounds" />
          </mxGeometry>
        </mxCell>
        <mxCell id="fmuekxSxBBkvDe3AGFHN-10" value="" style="shape=partialRectangle;html=1;whiteSpace=wrap;connectable=0;strokeColor=inherit;overflow=hidden;fillColor=none;top=0;left=0;bottom=0;right=0;pointerEvents=1;" vertex="1" parent="fmuekxSxBBkvDe3AGFHN-8">
          <mxGeometry x="188" width="187" height="943" as="geometry">
            <mxRectangle width="187" height="943" as="alternateBounds" />
          </mxGeometry>
        </mxCell>
        <mxCell id="fmuekxSxBBkvDe3AGFHN-11" value="Create Billed" style="text;html=1;strokeColor=none;fillColor=none;align=center;verticalAlign=middle;whiteSpace=wrap;rounded=0;" vertex="1" parent="1">
          <mxGeometry x="2747" y="48" width="100" height="30" as="geometry" />
        </mxCell>
        <mxCell id="fmuekxSxBBkvDe3AGFHN-15" style="edgeStyle=orthogonalEdgeStyle;rounded=0;orthogonalLoop=1;jettySize=auto;html=1;exitX=0.5;exitY=1;exitDx=0;exitDy=0;" edge="1" parent="1" source="fmuekxSxBBkvDe3AGFHN-12" target="fmuekxSxBBkvDe3AGFHN-13">
          <mxGeometry relative="1" as="geometry" />
        </mxCell>
        <mxCell id="fmuekxSxBBkvDe3AGFHN-12" value="" style="ellipse;whiteSpace=wrap;html=1;aspect=fixed;fillColor=#000000;" vertex="1" parent="1">
          <mxGeometry x="2818" y="160" width="50" height="50" as="geometry" />
        </mxCell>
        <mxCell id="fmuekxSxBBkvDe3AGFHN-16" style="edgeStyle=orthogonalEdgeStyle;rounded=0;orthogonalLoop=1;jettySize=auto;html=1;exitX=0.5;exitY=1;exitDx=0;exitDy=0;entryX=0.5;entryY=0;entryDx=0;entryDy=0;" edge="1" parent="1" source="fmuekxSxBBkvDe3AGFHN-13" target="fmuekxSxBBkvDe3AGFHN-14">
          <mxGeometry relative="1" as="geometry" />
        </mxCell>
        <mxCell id="fmuekxSxBBkvDe3AGFHN-13" value="Create Billed" style="rounded=1;whiteSpace=wrap;html=1;" vertex="1" parent="1">
          <mxGeometry x="2783" y="266" width="120" height="60" as="geometry" />
        </mxCell>
        <mxCell id="fmuekxSxBBkvDe3AGFHN-18" style="edgeStyle=orthogonalEdgeStyle;rounded=0;orthogonalLoop=1;jettySize=auto;html=1;exitX=1;exitY=0.5;exitDx=0;exitDy=0;entryX=0.5;entryY=0;entryDx=0;entryDy=0;" edge="1" parent="1" source="fmuekxSxBBkvDe3AGFHN-14" target="fmuekxSxBBkvDe3AGFHN-17">
          <mxGeometry relative="1" as="geometry" />
        </mxCell>
        <mxCell id="fmuekxSxBBkvDe3AGFHN-14" value="Choose Items" style="rounded=1;whiteSpace=wrap;html=1;" vertex="1" parent="1">
          <mxGeometry x="2783" y="382" width="120" height="60" as="geometry" />
        </mxCell>
        <mxCell id="fmuekxSxBBkvDe3AGFHN-31" style="edgeStyle=orthogonalEdgeStyle;rounded=0;orthogonalLoop=1;jettySize=auto;html=1;" edge="1" parent="1" source="fmuekxSxBBkvDe3AGFHN-17" target="fmuekxSxBBkvDe3AGFHN-23">
          <mxGeometry relative="1" as="geometry" />
        </mxCell>
        <mxCell id="fmuekxSxBBkvDe3AGFHN-17" value="Retrieve product details from the system" style="rounded=1;whiteSpace=wrap;html=1;" vertex="1" parent="1">
          <mxGeometry x="2970" y="481" width="120" height="60" as="geometry" />
        </mxCell>
        <mxCell id="fmuekxSxBBkvDe3AGFHN-38" style="edgeStyle=orthogonalEdgeStyle;rounded=0;orthogonalLoop=1;jettySize=auto;html=1;exitX=0.5;exitY=1;exitDx=0;exitDy=0;entryX=0.5;entryY=0;entryDx=0;entryDy=0;" edge="1" parent="1" source="fmuekxSxBBkvDe3AGFHN-21" target="fmuekxSxBBkvDe3AGFHN-25">
          <mxGeometry relative="1" as="geometry" />
        </mxCell>
        <mxCell id="fmuekxSxBBkvDe3AGFHN-21" value="Update Billed" style="rounded=1;whiteSpace=wrap;html=1;" vertex="1" parent="1">
          <mxGeometry x="2981" y="705" width="120" height="60" as="geometry" />
        </mxCell>
        <mxCell id="fmuekxSxBBkvDe3AGFHN-32" style="edgeStyle=orthogonalEdgeStyle;rounded=0;orthogonalLoop=1;jettySize=auto;html=1;exitX=0.5;exitY=1;exitDx=0;exitDy=0;entryX=0.5;entryY=0;entryDx=0;entryDy=0;" edge="1" parent="1" source="fmuekxSxBBkvDe3AGFHN-23" target="fmuekxSxBBkvDe3AGFHN-24">
          <mxGeometry relative="1" as="geometry" />
        </mxCell>
        <mxCell id="fmuekxSxBBkvDe3AGFHN-33" value="Confirm" style="edgeLabel;html=1;align=center;verticalAlign=middle;resizable=0;points=[];" connectable="0" vertex="1" parent="fmuekxSxBBkvDe3AGFHN-32">
          <mxGeometry x="-0.0629" relative="1" as="geometry">
            <mxPoint y="8" as="offset" />
          </mxGeometry>
        </mxCell>
        <mxCell id="fmuekxSxBBkvDe3AGFHN-23" value="Include Service charge" style="rounded=1;whiteSpace=wrap;html=1;" vertex="1" parent="1">
          <mxGeometry x="2783" y="570" width="120" height="60" as="geometry" />
        </mxCell>
        <mxCell id="fmuekxSxBBkvDe3AGFHN-37" style="edgeStyle=orthogonalEdgeStyle;rounded=0;orthogonalLoop=1;jettySize=auto;html=1;exitX=1;exitY=0.5;exitDx=0;exitDy=0;" edge="1" parent="1" source="fmuekxSxBBkvDe3AGFHN-24" target="fmuekxSxBBkvDe3AGFHN-21">
          <mxGeometry relative="1" as="geometry" />
        </mxCell>
        <mxCell id="fmuekxSxBBkvDe3AGFHN-41" value="Yes" style="edgeLabel;html=1;align=center;verticalAlign=middle;resizable=0;points=[];" connectable="0" vertex="1" parent="fmuekxSxBBkvDe3AGFHN-37">
          <mxGeometry x="-0.5593" y="-2" relative="1" as="geometry">
            <mxPoint x="3" y="-4" as="offset" />
          </mxGeometry>
        </mxCell>
        <mxCell id="fmuekxSxBBkvDe3AGFHN-40" style="edgeStyle=orthogonalEdgeStyle;rounded=0;orthogonalLoop=1;jettySize=auto;html=1;exitX=0;exitY=0.5;exitDx=0;exitDy=0;entryX=0;entryY=0.5;entryDx=0;entryDy=0;" edge="1" parent="1" source="fmuekxSxBBkvDe3AGFHN-24" target="fmuekxSxBBkvDe3AGFHN-13">
          <mxGeometry relative="1" as="geometry" />
        </mxCell>
        <mxCell id="fmuekxSxBBkvDe3AGFHN-42" value="No" style="edgeLabel;html=1;align=center;verticalAlign=middle;resizable=0;points=[];" connectable="0" vertex="1" parent="fmuekxSxBBkvDe3AGFHN-40">
          <mxGeometry x="-0.9234" y="2" relative="1" as="geometry">
            <mxPoint x="-5" y="-2" as="offset" />
          </mxGeometry>
        </mxCell>
        <mxCell id="fmuekxSxBBkvDe3AGFHN-24" value="" style="rhombus;whiteSpace=wrap;html=1;" vertex="1" parent="1">
          <mxGeometry x="2787" y="695" width="112" height="80" as="geometry" />
        </mxCell>
        <mxCell id="fmuekxSxBBkvDe3AGFHN-44" style="edgeStyle=orthogonalEdgeStyle;rounded=0;orthogonalLoop=1;jettySize=auto;html=1;exitX=0.5;exitY=1;exitDx=0;exitDy=0;entryX=0.5;entryY=0;entryDx=0;entryDy=0;" edge="1" parent="1" source="fmuekxSxBBkvDe3AGFHN-25" target="fmuekxSxBBkvDe3AGFHN-28">
          <mxGeometry relative="1" as="geometry" />
        </mxCell>
        <mxCell id="fmuekxSxBBkvDe3AGFHN-25" value="Display Billed" style="rounded=1;whiteSpace=wrap;html=1;" vertex="1" parent="1">
          <mxGeometry x="2783" y="879" width="120" height="60" as="geometry" />
        </mxCell>
        <mxCell id="fmuekxSxBBkvDe3AGFHN-28" value="" style="ellipse;whiteSpace=wrap;html=1;aspect=fixed;" vertex="1" parent="1">
          <mxGeometry x="2818" y="1008" width="50" height="50" as="geometry" />
        </mxCell>
        <mxCell id="fmuekxSxBBkvDe3AGFHN-30" value="" style="ellipse;whiteSpace=wrap;html=1;aspect=fixed;fillColor=#000000;" vertex="1" parent="1">
          <mxGeometry x="2823" y="1013" width="40" height="40" as="geometry" />
        </mxCell>
        <mxCell id="fmuekxSxBBkvDe3AGFHN-45" value="" style="shape=table;startSize=0;container=1;collapsible=0;childLayout=tableLayout;" vertex="1" parent="1">
          <mxGeometry x="3534" y="73" width="375" height="1001.1136474609375" as="geometry" />
        </mxCell>
        <mxCell id="fmuekxSxBBkvDe3AGFHN-46" value="" style="shape=tableRow;horizontal=0;startSize=0;swimlaneHead=0;swimlaneBody=0;strokeColor=inherit;top=0;left=0;bottom=0;right=0;collapsible=0;dropTarget=0;fillColor=none;points=[[0,0.5],[1,0.5]];portConstraint=eastwest;" vertex="1" parent="fmuekxSxBBkvDe3AGFHN-45">
          <mxGeometry width="375" height="58" as="geometry" />
        </mxCell>
        <mxCell id="fmuekxSxBBkvDe3AGFHN-47" value="Manager" style="shape=partialRectangle;html=1;whiteSpace=wrap;connectable=0;strokeColor=inherit;overflow=hidden;fillColor=none;top=0;left=0;bottom=0;right=0;pointerEvents=1;fontSize=15;" vertex="1" parent="fmuekxSxBBkvDe3AGFHN-46">
          <mxGeometry width="188" height="58" as="geometry">
            <mxRectangle width="188" height="58" as="alternateBounds" />
          </mxGeometry>
        </mxCell>
        <mxCell id="fmuekxSxBBkvDe3AGFHN-48" value="System" style="shape=partialRectangle;html=1;whiteSpace=wrap;connectable=0;strokeColor=inherit;overflow=hidden;fillColor=none;top=0;left=0;bottom=0;right=0;pointerEvents=1;fontSize=15;" vertex="1" parent="fmuekxSxBBkvDe3AGFHN-46">
          <mxGeometry x="188" width="187" height="58" as="geometry">
            <mxRectangle width="187" height="58" as="alternateBounds" />
          </mxGeometry>
        </mxCell>
        <mxCell id="fmuekxSxBBkvDe3AGFHN-49" value="" style="shape=tableRow;horizontal=0;startSize=0;swimlaneHead=0;swimlaneBody=0;strokeColor=inherit;top=0;left=0;bottom=0;right=0;collapsible=0;dropTarget=0;fillColor=none;points=[[0,0.5],[1,0.5]];portConstraint=eastwest;" vertex="1" parent="fmuekxSxBBkvDe3AGFHN-45">
          <mxGeometry y="58" width="375" height="943" as="geometry" />
        </mxCell>
        <mxCell id="fmuekxSxBBkvDe3AGFHN-50" value="" style="shape=partialRectangle;html=1;whiteSpace=wrap;connectable=0;strokeColor=inherit;overflow=hidden;fillColor=none;top=0;left=0;bottom=0;right=0;pointerEvents=1;" vertex="1" parent="fmuekxSxBBkvDe3AGFHN-49">
          <mxGeometry width="188" height="943" as="geometry">
            <mxRectangle width="188" height="943" as="alternateBounds" />
          </mxGeometry>
        </mxCell>
        <mxCell id="fmuekxSxBBkvDe3AGFHN-51" value="" style="shape=partialRectangle;html=1;whiteSpace=wrap;connectable=0;strokeColor=inherit;overflow=hidden;fillColor=none;top=0;left=0;bottom=0;right=0;pointerEvents=1;" vertex="1" parent="fmuekxSxBBkvDe3AGFHN-49">
          <mxGeometry x="188" width="187" height="943" as="geometry">
            <mxRectangle width="187" height="943" as="alternateBounds" />
          </mxGeometry>
        </mxCell>
        <mxCell id="fmuekxSxBBkvDe3AGFHN-53" value="" style="ellipse;whiteSpace=wrap;html=1;aspect=fixed;" vertex="1" parent="1">
          <mxGeometry x="1955" y="583" width="50" height="50" as="geometry" />
        </mxCell>
        <mxCell id="fmuekxSxBBkvDe3AGFHN-54" value="" style="ellipse;whiteSpace=wrap;html=1;aspect=fixed;fillColor=#000000;" vertex="1" parent="1">
          <mxGeometry x="1960" y="588" width="40" height="40" as="geometry" />
        </mxCell>
        <mxCell id="fmuekxSxBBkvDe3AGFHN-58" style="edgeStyle=orthogonalEdgeStyle;rounded=0;orthogonalLoop=1;jettySize=auto;html=1;exitX=0.5;exitY=1;exitDx=0;exitDy=0;entryX=0.5;entryY=0;entryDx=0;entryDy=0;" edge="1" parent="1" source="fmuekxSxBBkvDe3AGFHN-55" target="fmuekxSxBBkvDe3AGFHN-53">
          <mxGeometry relative="1" as="geometry" />
        </mxCell>
        <mxCell id="fmuekxSxBBkvDe3AGFHN-55" value="Display Billed and Detail" style="rounded=1;whiteSpace=wrap;html=1;" vertex="1" parent="1">
          <mxGeometry x="1920" y="462" width="120" height="60" as="geometry" />
        </mxCell>
        <mxCell id="fmuekxSxBBkvDe3AGFHN-60" value="Set Service Charge" style="text;html=1;strokeColor=none;fillColor=none;align=center;verticalAlign=middle;whiteSpace=wrap;rounded=0;" vertex="1" parent="1">
          <mxGeometry x="3534" y="43" width="118" height="30" as="geometry" />
        </mxCell>
        <mxCell id="fmuekxSxBBkvDe3AGFHN-69" style="edgeStyle=orthogonalEdgeStyle;rounded=0;orthogonalLoop=1;jettySize=auto;html=1;exitX=0.5;exitY=1;exitDx=0;exitDy=0;entryX=0.5;entryY=0;entryDx=0;entryDy=0;" edge="1" parent="1" source="fmuekxSxBBkvDe3AGFHN-61" target="fmuekxSxBBkvDe3AGFHN-62">
          <mxGeometry relative="1" as="geometry" />
        </mxCell>
        <mxCell id="fmuekxSxBBkvDe3AGFHN-61" value="" style="ellipse;whiteSpace=wrap;html=1;aspect=fixed;fillColor=#000000;" vertex="1" parent="1">
          <mxGeometry x="3608" y="158" width="50" height="50" as="geometry" />
        </mxCell>
        <mxCell id="fmuekxSxBBkvDe3AGFHN-70" style="edgeStyle=orthogonalEdgeStyle;rounded=0;orthogonalLoop=1;jettySize=auto;html=1;exitX=1;exitY=0.5;exitDx=0;exitDy=0;" edge="1" parent="1" source="fmuekxSxBBkvDe3AGFHN-62" target="fmuekxSxBBkvDe3AGFHN-64">
          <mxGeometry relative="1" as="geometry" />
        </mxCell>
        <mxCell id="fmuekxSxBBkvDe3AGFHN-62" value="Access Service charge setting" style="rounded=1;whiteSpace=wrap;html=1;" vertex="1" parent="1">
          <mxGeometry x="3573" y="266" width="120" height="60" as="geometry" />
        </mxCell>
        <mxCell id="fmuekxSxBBkvDe3AGFHN-83" style="edgeStyle=orthogonalEdgeStyle;rounded=0;orthogonalLoop=1;jettySize=auto;html=1;exitX=0.5;exitY=1;exitDx=0;exitDy=0;entryX=0.5;entryY=0;entryDx=0;entryDy=0;" edge="1" parent="1" source="fmuekxSxBBkvDe3AGFHN-63" target="fmuekxSxBBkvDe3AGFHN-82">
          <mxGeometry relative="1" as="geometry" />
        </mxCell>
        <mxCell id="fmuekxSxBBkvDe3AGFHN-86" value="Confirm" style="edgeLabel;html=1;align=center;verticalAlign=middle;resizable=0;points=[];" connectable="0" vertex="1" parent="fmuekxSxBBkvDe3AGFHN-83">
          <mxGeometry x="0.1796" y="-1" relative="1" as="geometry">
            <mxPoint as="offset" />
          </mxGeometry>
        </mxCell>
        <mxCell id="fmuekxSxBBkvDe3AGFHN-63" value="Select Service charge rate" style="rounded=1;whiteSpace=wrap;html=1;" vertex="1" parent="1">
          <mxGeometry x="3573" y="458" width="120" height="60" as="geometry" />
        </mxCell>
        <mxCell id="fmuekxSxBBkvDe3AGFHN-71" style="edgeStyle=orthogonalEdgeStyle;rounded=0;orthogonalLoop=1;jettySize=auto;html=1;exitX=0;exitY=0.5;exitDx=0;exitDy=0;" edge="1" parent="1" source="fmuekxSxBBkvDe3AGFHN-64" target="fmuekxSxBBkvDe3AGFHN-63">
          <mxGeometry relative="1" as="geometry" />
        </mxCell>
        <mxCell id="fmuekxSxBBkvDe3AGFHN-64" value="Retrive data" style="rounded=1;whiteSpace=wrap;html=1;" vertex="1" parent="1">
          <mxGeometry x="3761" y="366" width="120" height="60" as="geometry" />
        </mxCell>
        <mxCell id="fmuekxSxBBkvDe3AGFHN-76" style="edgeStyle=orthogonalEdgeStyle;rounded=0;orthogonalLoop=1;jettySize=auto;html=1;exitX=0.5;exitY=1;exitDx=0;exitDy=0;entryX=1;entryY=0.5;entryDx=0;entryDy=0;" edge="1" parent="1" source="fmuekxSxBBkvDe3AGFHN-66" target="fmuekxSxBBkvDe3AGFHN-68">
          <mxGeometry relative="1" as="geometry" />
        </mxCell>
        <mxCell id="fmuekxSxBBkvDe3AGFHN-66" value="Save Data" style="rounded=1;whiteSpace=wrap;html=1;" vertex="1" parent="1">
          <mxGeometry x="3761" y="573" width="120" height="60" as="geometry" />
        </mxCell>
        <mxCell id="fmuekxSxBBkvDe3AGFHN-75" style="edgeStyle=orthogonalEdgeStyle;rounded=0;orthogonalLoop=1;jettySize=auto;html=1;exitX=0.5;exitY=1;exitDx=0;exitDy=0;entryX=0.5;entryY=0;entryDx=0;entryDy=0;" edge="1" parent="1" source="fmuekxSxBBkvDe3AGFHN-67" target="fmuekxSxBBkvDe3AGFHN-68">
          <mxGeometry relative="1" as="geometry" />
        </mxCell>
        <mxCell id="fmuekxSxBBkvDe3AGFHN-67" value="Cancel" style="rounded=1;whiteSpace=wrap;html=1;" vertex="1" parent="1">
          <mxGeometry x="3572.99" y="698" width="120" height="60" as="geometry" />
        </mxCell>
        <mxCell id="fmuekxSxBBkvDe3AGFHN-79" style="edgeStyle=orthogonalEdgeStyle;rounded=0;orthogonalLoop=1;jettySize=auto;html=1;exitX=0.5;exitY=1;exitDx=0;exitDy=0;entryX=0.5;entryY=0;entryDx=0;entryDy=0;" edge="1" parent="1" source="fmuekxSxBBkvDe3AGFHN-68" target="fmuekxSxBBkvDe3AGFHN-77">
          <mxGeometry relative="1" as="geometry" />
        </mxCell>
        <mxCell id="fmuekxSxBBkvDe3AGFHN-68" value="Display Service charge" style="rounded=1;whiteSpace=wrap;html=1;" vertex="1" parent="1">
          <mxGeometry x="3572.99" y="825" width="120" height="60" as="geometry" />
        </mxCell>
        <mxCell id="fmuekxSxBBkvDe3AGFHN-77" value="" style="ellipse;whiteSpace=wrap;html=1;aspect=fixed;" vertex="1" parent="1">
          <mxGeometry x="3607.99" y="950" width="50" height="50" as="geometry" />
        </mxCell>
        <mxCell id="fmuekxSxBBkvDe3AGFHN-78" value="" style="ellipse;whiteSpace=wrap;html=1;aspect=fixed;fillColor=#000000;" vertex="1" parent="1">
          <mxGeometry x="3612.99" y="955" width="40" height="40" as="geometry" />
        </mxCell>
        <mxCell id="fmuekxSxBBkvDe3AGFHN-84" style="edgeStyle=orthogonalEdgeStyle;rounded=0;orthogonalLoop=1;jettySize=auto;html=1;exitX=0.5;exitY=1;exitDx=0;exitDy=0;entryX=0.5;entryY=0;entryDx=0;entryDy=0;" edge="1" parent="1" source="fmuekxSxBBkvDe3AGFHN-82" target="fmuekxSxBBkvDe3AGFHN-67">
          <mxGeometry relative="1" as="geometry" />
        </mxCell>
        <mxCell id="fmuekxSxBBkvDe3AGFHN-88" value="No" style="edgeLabel;html=1;align=center;verticalAlign=middle;resizable=0;points=[];" connectable="0" vertex="1" parent="fmuekxSxBBkvDe3AGFHN-84">
          <mxGeometry x="-0.6889" y="-1" relative="1" as="geometry">
            <mxPoint as="offset" />
          </mxGeometry>
        </mxCell>
        <mxCell id="fmuekxSxBBkvDe3AGFHN-85" style="edgeStyle=orthogonalEdgeStyle;rounded=0;orthogonalLoop=1;jettySize=auto;html=1;entryX=0;entryY=0.5;entryDx=0;entryDy=0;" edge="1" parent="1" target="fmuekxSxBBkvDe3AGFHN-66">
          <mxGeometry relative="1" as="geometry">
            <mxPoint x="3693" y="603" as="sourcePoint" />
          </mxGeometry>
        </mxCell>
        <mxCell id="fmuekxSxBBkvDe3AGFHN-87" value="Yes" style="edgeLabel;html=1;align=center;verticalAlign=middle;resizable=0;points=[];" connectable="0" vertex="1" parent="fmuekxSxBBkvDe3AGFHN-85">
          <mxGeometry x="-0.8509" y="1" relative="1" as="geometry">
            <mxPoint x="9" as="offset" />
          </mxGeometry>
        </mxCell>
        <mxCell id="fmuekxSxBBkvDe3AGFHN-82" value="" style="rhombus;whiteSpace=wrap;html=1;" vertex="1" parent="1">
          <mxGeometry x="3573.99" y="566" width="119.01" height="74" as="geometry" />
        </mxCell>
        <mxCell id="fmuekxSxBBkvDe3AGFHN-89" value="Menu System" style="text;html=1;strokeColor=none;fillColor=none;align=center;verticalAlign=middle;whiteSpace=wrap;rounded=0;fontSize=48;" vertex="1" parent="1">
          <mxGeometry x="1026" y="1273" width="430" height="30" as="geometry" />
        </mxCell>
        <mxCell id="fmuekxSxBBkvDe3AGFHN-90" value="" style="shape=flexArrow;endArrow=classic;html=1;rounded=0;" edge="1" parent="1">
          <mxGeometry width="50" height="50" relative="1" as="geometry">
            <mxPoint x="1440" y="1286.89" as="sourcePoint" />
            <mxPoint x="1532.5" y="1286.89" as="targetPoint" />
          </mxGeometry>
        </mxCell>
        <mxCell id="fmuekxSxBBkvDe3AGFHN-91" value="" style="shape=table;startSize=0;container=1;collapsible=0;childLayout=tableLayout;" vertex="1" parent="1">
          <mxGeometry x="1880" y="1273" width="466.5567626953125" height="645.988800048828" as="geometry" />
        </mxCell>
        <mxCell id="fmuekxSxBBkvDe3AGFHN-92" value="" style="shape=tableRow;horizontal=0;startSize=0;swimlaneHead=0;swimlaneBody=0;strokeColor=inherit;top=0;left=0;bottom=0;right=0;collapsible=0;dropTarget=0;fillColor=none;points=[[0,0.5],[1,0.5]];portConstraint=eastwest;" vertex="1" parent="fmuekxSxBBkvDe3AGFHN-91">
          <mxGeometry width="466.5567626953125" height="58" as="geometry" />
        </mxCell>
        <mxCell id="fmuekxSxBBkvDe3AGFHN-93" value="Manager / Server / Customer / Chef / Cashier" style="shape=partialRectangle;html=1;whiteSpace=wrap;connectable=0;strokeColor=inherit;overflow=hidden;fillColor=none;top=0;left=0;bottom=0;right=0;pointerEvents=1;fontSize=15;" vertex="1" parent="fmuekxSxBBkvDe3AGFHN-92">
          <mxGeometry width="239" height="58" as="geometry">
            <mxRectangle width="239" height="58" as="alternateBounds" />
          </mxGeometry>
        </mxCell>
        <mxCell id="fmuekxSxBBkvDe3AGFHN-94" value="System" style="shape=partialRectangle;html=1;whiteSpace=wrap;connectable=0;strokeColor=inherit;overflow=hidden;fillColor=none;top=0;left=0;bottom=0;right=0;pointerEvents=1;fontSize=15;" vertex="1" parent="fmuekxSxBBkvDe3AGFHN-92">
          <mxGeometry x="239" width="228" height="58" as="geometry">
            <mxRectangle width="228" height="58" as="alternateBounds" />
          </mxGeometry>
        </mxCell>
        <mxCell id="fmuekxSxBBkvDe3AGFHN-95" value="" style="shape=tableRow;horizontal=0;startSize=0;swimlaneHead=0;swimlaneBody=0;strokeColor=inherit;top=0;left=0;bottom=0;right=0;collapsible=0;dropTarget=0;fillColor=none;points=[[0,0.5],[1,0.5]];portConstraint=eastwest;" vertex="1" parent="fmuekxSxBBkvDe3AGFHN-91">
          <mxGeometry y="58" width="466.5567626953125" height="588" as="geometry" />
        </mxCell>
        <mxCell id="fmuekxSxBBkvDe3AGFHN-96" value="" style="shape=partialRectangle;html=1;whiteSpace=wrap;connectable=0;strokeColor=inherit;overflow=hidden;fillColor=none;top=0;left=0;bottom=0;right=0;pointerEvents=1;" vertex="1" parent="fmuekxSxBBkvDe3AGFHN-95">
          <mxGeometry width="239" height="588" as="geometry">
            <mxRectangle width="239" height="588" as="alternateBounds" />
          </mxGeometry>
        </mxCell>
        <mxCell id="fmuekxSxBBkvDe3AGFHN-97" value="" style="shape=partialRectangle;html=1;whiteSpace=wrap;connectable=0;strokeColor=inherit;overflow=hidden;fillColor=none;top=0;left=0;bottom=0;right=0;pointerEvents=1;" vertex="1" parent="fmuekxSxBBkvDe3AGFHN-95">
          <mxGeometry x="239" width="228" height="588" as="geometry">
            <mxRectangle width="228" height="588" as="alternateBounds" />
          </mxGeometry>
        </mxCell>
        <mxCell id="fmuekxSxBBkvDe3AGFHN-98" value="View Menu" style="text;html=1;strokeColor=none;fillColor=none;align=center;verticalAlign=middle;whiteSpace=wrap;rounded=0;" vertex="1" parent="1">
          <mxGeometry x="1880" y="1243" width="88" height="30" as="geometry" />
        </mxCell>
        <mxCell id="fmuekxSxBBkvDe3AGFHN-101" style="edgeStyle=orthogonalEdgeStyle;rounded=0;orthogonalLoop=1;jettySize=auto;html=1;exitX=0.5;exitY=1;exitDx=0;exitDy=0;entryX=0.5;entryY=0;entryDx=0;entryDy=0;" edge="1" parent="1" source="fmuekxSxBBkvDe3AGFHN-102" target="fmuekxSxBBkvDe3AGFHN-104">
          <mxGeometry relative="1" as="geometry" />
        </mxCell>
        <mxCell id="fmuekxSxBBkvDe3AGFHN-102" value="" style="ellipse;whiteSpace=wrap;html=1;aspect=fixed;fillColor=#000000;" vertex="1" parent="1">
          <mxGeometry x="1978" y="1373" width="50" height="50" as="geometry" />
        </mxCell>
        <mxCell id="fmuekxSxBBkvDe3AGFHN-103" style="edgeStyle=orthogonalEdgeStyle;rounded=0;orthogonalLoop=1;jettySize=auto;html=1;exitX=1;exitY=0.5;exitDx=0;exitDy=0;entryX=0.5;entryY=0;entryDx=0;entryDy=0;" edge="1" parent="1" source="fmuekxSxBBkvDe3AGFHN-104" target="fmuekxSxBBkvDe3AGFHN-106">
          <mxGeometry relative="1" as="geometry" />
        </mxCell>
        <mxCell id="fmuekxSxBBkvDe3AGFHN-104" value="View Menu" style="rounded=1;whiteSpace=wrap;html=1;" vertex="1" parent="1">
          <mxGeometry x="1943" y="1487.46" width="120" height="60" as="geometry" />
        </mxCell>
        <mxCell id="fmuekxSxBBkvDe3AGFHN-105" style="edgeStyle=orthogonalEdgeStyle;rounded=0;orthogonalLoop=1;jettySize=auto;html=1;exitX=0;exitY=0.5;exitDx=0;exitDy=0;" edge="1" parent="1" source="fmuekxSxBBkvDe3AGFHN-106" target="fmuekxSxBBkvDe3AGFHN-110">
          <mxGeometry relative="1" as="geometry" />
        </mxCell>
        <mxCell id="fmuekxSxBBkvDe3AGFHN-106" value="Retrieve Menu data" style="rounded=1;whiteSpace=wrap;html=1;" vertex="1" parent="1">
          <mxGeometry x="2169" y="1590" width="120" height="60" as="geometry" />
        </mxCell>
        <mxCell id="fmuekxSxBBkvDe3AGFHN-107" value="" style="ellipse;whiteSpace=wrap;html=1;aspect=fixed;" vertex="1" parent="1">
          <mxGeometry x="1978" y="1798" width="50" height="50" as="geometry" />
        </mxCell>
        <mxCell id="fmuekxSxBBkvDe3AGFHN-108" value="" style="ellipse;whiteSpace=wrap;html=1;aspect=fixed;fillColor=#000000;" vertex="1" parent="1">
          <mxGeometry x="1983" y="1803" width="40" height="40" as="geometry" />
        </mxCell>
        <mxCell id="fmuekxSxBBkvDe3AGFHN-109" style="edgeStyle=orthogonalEdgeStyle;rounded=0;orthogonalLoop=1;jettySize=auto;html=1;exitX=0.5;exitY=1;exitDx=0;exitDy=0;entryX=0.5;entryY=0;entryDx=0;entryDy=0;" edge="1" parent="1" source="fmuekxSxBBkvDe3AGFHN-110" target="fmuekxSxBBkvDe3AGFHN-107">
          <mxGeometry relative="1" as="geometry" />
        </mxCell>
        <mxCell id="fmuekxSxBBkvDe3AGFHN-110" value="Display Menu" style="rounded=1;whiteSpace=wrap;html=1;" vertex="1" parent="1">
          <mxGeometry x="1943" y="1677" width="120" height="60" as="geometry" />
        </mxCell>
        <mxCell id="fmuekxSxBBkvDe3AGFHN-118" value="" style="shape=table;startSize=0;container=1;collapsible=0;childLayout=tableLayout;" vertex="1" parent="1">
          <mxGeometry x="2747" y="1273" width="375" height="739.1893564860028" as="geometry" />
        </mxCell>
        <mxCell id="fmuekxSxBBkvDe3AGFHN-119" value="" style="shape=tableRow;horizontal=0;startSize=0;swimlaneHead=0;swimlaneBody=0;strokeColor=inherit;top=0;left=0;bottom=0;right=0;collapsible=0;dropTarget=0;fillColor=none;points=[[0,0.5],[1,0.5]];portConstraint=eastwest;" vertex="1" parent="fmuekxSxBBkvDe3AGFHN-118">
          <mxGeometry width="375" height="58" as="geometry" />
        </mxCell>
        <mxCell id="fmuekxSxBBkvDe3AGFHN-120" value="Manager" style="shape=partialRectangle;html=1;whiteSpace=wrap;connectable=0;strokeColor=inherit;overflow=hidden;fillColor=none;top=0;left=0;bottom=0;right=0;pointerEvents=1;fontSize=15;" vertex="1" parent="fmuekxSxBBkvDe3AGFHN-119">
          <mxGeometry width="188" height="58" as="geometry">
            <mxRectangle width="188" height="58" as="alternateBounds" />
          </mxGeometry>
        </mxCell>
        <mxCell id="fmuekxSxBBkvDe3AGFHN-121" value="System" style="shape=partialRectangle;html=1;whiteSpace=wrap;connectable=0;strokeColor=inherit;overflow=hidden;fillColor=none;top=0;left=0;bottom=0;right=0;pointerEvents=1;fontSize=15;" vertex="1" parent="fmuekxSxBBkvDe3AGFHN-119">
          <mxGeometry x="188" width="187" height="58" as="geometry">
            <mxRectangle width="187" height="58" as="alternateBounds" />
          </mxGeometry>
        </mxCell>
        <mxCell id="fmuekxSxBBkvDe3AGFHN-122" value="" style="shape=tableRow;horizontal=0;startSize=0;swimlaneHead=0;swimlaneBody=0;strokeColor=inherit;top=0;left=0;bottom=0;right=0;collapsible=0;dropTarget=0;fillColor=none;points=[[0,0.5],[1,0.5]];portConstraint=eastwest;" vertex="1" parent="fmuekxSxBBkvDe3AGFHN-118">
          <mxGeometry y="58" width="375" height="681" as="geometry" />
        </mxCell>
        <mxCell id="fmuekxSxBBkvDe3AGFHN-123" value="" style="shape=partialRectangle;html=1;whiteSpace=wrap;connectable=0;strokeColor=inherit;overflow=hidden;fillColor=none;top=0;left=0;bottom=0;right=0;pointerEvents=1;" vertex="1" parent="fmuekxSxBBkvDe3AGFHN-122">
          <mxGeometry width="188" height="681" as="geometry">
            <mxRectangle width="188" height="681" as="alternateBounds" />
          </mxGeometry>
        </mxCell>
        <mxCell id="fmuekxSxBBkvDe3AGFHN-124" value="" style="shape=partialRectangle;html=1;whiteSpace=wrap;connectable=0;strokeColor=inherit;overflow=hidden;fillColor=none;top=0;left=0;bottom=0;right=0;pointerEvents=1;" vertex="1" parent="fmuekxSxBBkvDe3AGFHN-122">
          <mxGeometry x="188" width="187" height="681" as="geometry">
            <mxRectangle width="187" height="681" as="alternateBounds" />
          </mxGeometry>
        </mxCell>
        <mxCell id="fmuekxSxBBkvDe3AGFHN-125" value="Add Menu" style="text;html=1;strokeColor=none;fillColor=none;align=center;verticalAlign=middle;whiteSpace=wrap;rounded=0;" vertex="1" parent="1">
          <mxGeometry x="2747" y="1243" width="100" height="30" as="geometry" />
        </mxCell>
        <mxCell id="fgCC3ogbLAb3C-D56_0G-13" style="edgeStyle=orthogonalEdgeStyle;rounded=0;orthogonalLoop=1;jettySize=auto;html=1;exitX=0.5;exitY=1;exitDx=0;exitDy=0;entryX=0.5;entryY=0;entryDx=0;entryDy=0;" edge="1" parent="1" source="fmuekxSxBBkvDe3AGFHN-126" target="fmuekxSxBBkvDe3AGFHN-127">
          <mxGeometry relative="1" as="geometry" />
        </mxCell>
        <mxCell id="fmuekxSxBBkvDe3AGFHN-126" value="" style="ellipse;whiteSpace=wrap;html=1;aspect=fixed;fillColor=#000000;" vertex="1" parent="1">
          <mxGeometry x="2818" y="1373" width="50" height="50" as="geometry" />
        </mxCell>
        <mxCell id="fgCC3ogbLAb3C-D56_0G-14" style="edgeStyle=orthogonalEdgeStyle;rounded=0;orthogonalLoop=1;jettySize=auto;html=1;exitX=0.5;exitY=1;exitDx=0;exitDy=0;entryX=0.5;entryY=0;entryDx=0;entryDy=0;" edge="1" parent="1" source="fmuekxSxBBkvDe3AGFHN-127" target="fmuekxSxBBkvDe3AGFHN-129">
          <mxGeometry relative="1" as="geometry" />
        </mxCell>
        <mxCell id="fmuekxSxBBkvDe3AGFHN-127" value="Add Menu" style="rounded=1;whiteSpace=wrap;html=1;" vertex="1" parent="1">
          <mxGeometry x="2783" y="1472" width="120" height="60" as="geometry" />
        </mxCell>
        <mxCell id="fgCC3ogbLAb3C-D56_0G-15" style="edgeStyle=orthogonalEdgeStyle;rounded=0;orthogonalLoop=1;jettySize=auto;html=1;exitX=1;exitY=0.5;exitDx=0;exitDy=0;entryX=0.5;entryY=0;entryDx=0;entryDy=0;" edge="1" parent="1" source="fmuekxSxBBkvDe3AGFHN-129" target="fgCC3ogbLAb3C-D56_0G-9">
          <mxGeometry relative="1" as="geometry" />
        </mxCell>
        <mxCell id="fmuekxSxBBkvDe3AGFHN-129" value="Fill in Menu info" style="rounded=1;whiteSpace=wrap;html=1;" vertex="1" parent="1">
          <mxGeometry x="2783" y="1576" width="120" height="60" as="geometry" />
        </mxCell>
        <mxCell id="fgCC3ogbLAb3C-D56_0G-1" value="" style="shape=table;startSize=0;container=1;collapsible=0;childLayout=tableLayout;" vertex="1" parent="1">
          <mxGeometry x="3534" y="1273" width="375" height="762.500267028809" as="geometry" />
        </mxCell>
        <mxCell id="fgCC3ogbLAb3C-D56_0G-2" value="" style="shape=tableRow;horizontal=0;startSize=0;swimlaneHead=0;swimlaneBody=0;strokeColor=inherit;top=0;left=0;bottom=0;right=0;collapsible=0;dropTarget=0;fillColor=none;points=[[0,0.5],[1,0.5]];portConstraint=eastwest;" vertex="1" parent="fgCC3ogbLAb3C-D56_0G-1">
          <mxGeometry width="375" height="30" as="geometry" />
        </mxCell>
        <mxCell id="fgCC3ogbLAb3C-D56_0G-3" value="Manager" style="shape=partialRectangle;html=1;whiteSpace=wrap;connectable=0;strokeColor=inherit;overflow=hidden;fillColor=none;top=0;left=0;bottom=0;right=0;pointerEvents=1;fontSize=15;" vertex="1" parent="fgCC3ogbLAb3C-D56_0G-2">
          <mxGeometry width="188" height="30" as="geometry">
            <mxRectangle width="188" height="30" as="alternateBounds" />
          </mxGeometry>
        </mxCell>
        <mxCell id="fgCC3ogbLAb3C-D56_0G-4" value="System" style="shape=partialRectangle;html=1;whiteSpace=wrap;connectable=0;strokeColor=inherit;overflow=hidden;fillColor=none;top=0;left=0;bottom=0;right=0;pointerEvents=1;fontSize=15;" vertex="1" parent="fgCC3ogbLAb3C-D56_0G-2">
          <mxGeometry x="188" width="187" height="30" as="geometry">
            <mxRectangle width="187" height="30" as="alternateBounds" />
          </mxGeometry>
        </mxCell>
        <mxCell id="fgCC3ogbLAb3C-D56_0G-5" value="" style="shape=tableRow;horizontal=0;startSize=0;swimlaneHead=0;swimlaneBody=0;strokeColor=inherit;top=0;left=0;bottom=0;right=0;collapsible=0;dropTarget=0;fillColor=none;points=[[0,0.5],[1,0.5]];portConstraint=eastwest;" vertex="1" parent="fgCC3ogbLAb3C-D56_0G-1">
          <mxGeometry y="30" width="375" height="733" as="geometry" />
        </mxCell>
        <mxCell id="fgCC3ogbLAb3C-D56_0G-6" value="" style="shape=partialRectangle;html=1;whiteSpace=wrap;connectable=0;strokeColor=inherit;overflow=hidden;fillColor=none;top=0;left=0;bottom=0;right=0;pointerEvents=1;" vertex="1" parent="fgCC3ogbLAb3C-D56_0G-5">
          <mxGeometry width="188" height="733" as="geometry">
            <mxRectangle width="188" height="733" as="alternateBounds" />
          </mxGeometry>
        </mxCell>
        <mxCell id="fgCC3ogbLAb3C-D56_0G-7" value="" style="shape=partialRectangle;html=1;whiteSpace=wrap;connectable=0;strokeColor=inherit;overflow=hidden;fillColor=none;top=0;left=0;bottom=0;right=0;pointerEvents=1;" vertex="1" parent="fgCC3ogbLAb3C-D56_0G-5">
          <mxGeometry x="188" width="187" height="733" as="geometry">
            <mxRectangle width="187" height="733" as="alternateBounds" />
          </mxGeometry>
        </mxCell>
        <mxCell id="fgCC3ogbLAb3C-D56_0G-8" value="Edit Menu" style="text;html=1;strokeColor=none;fillColor=none;align=center;verticalAlign=middle;whiteSpace=wrap;rounded=0;" vertex="1" parent="1">
          <mxGeometry x="3534" y="1243" width="100" height="30" as="geometry" />
        </mxCell>
        <mxCell id="fgCC3ogbLAb3C-D56_0G-80" style="edgeStyle=orthogonalEdgeStyle;rounded=0;orthogonalLoop=1;jettySize=auto;html=1;exitX=0;exitY=0.5;exitDx=0;exitDy=0;" edge="1" parent="1" source="fgCC3ogbLAb3C-D56_0G-9" target="fgCC3ogbLAb3C-D56_0G-79">
          <mxGeometry relative="1" as="geometry" />
        </mxCell>
        <mxCell id="fgCC3ogbLAb3C-D56_0G-9" value="Update Menu" style="rounded=1;whiteSpace=wrap;html=1;" vertex="1" parent="1">
          <mxGeometry x="2970" y="1673" width="120" height="60" as="geometry" />
        </mxCell>
        <mxCell id="fgCC3ogbLAb3C-D56_0G-11" value="" style="ellipse;whiteSpace=wrap;html=1;aspect=fixed;" vertex="1" parent="1">
          <mxGeometry x="2822" y="1908" width="50" height="50" as="geometry" />
        </mxCell>
        <mxCell id="fgCC3ogbLAb3C-D56_0G-12" value="" style="ellipse;whiteSpace=wrap;html=1;aspect=fixed;fillColor=#000000;" vertex="1" parent="1">
          <mxGeometry x="2827" y="1913" width="40" height="40" as="geometry" />
        </mxCell>
        <mxCell id="fgCC3ogbLAb3C-D56_0G-17" value="" style="shape=table;startSize=0;container=1;collapsible=0;childLayout=tableLayout;" vertex="1" parent="1">
          <mxGeometry x="1887" y="2448" width="375" height="811.6438903808593" as="geometry" />
        </mxCell>
        <mxCell id="fgCC3ogbLAb3C-D56_0G-18" value="" style="shape=tableRow;horizontal=0;startSize=0;swimlaneHead=0;swimlaneBody=0;strokeColor=inherit;top=0;left=0;bottom=0;right=0;collapsible=0;dropTarget=0;fillColor=none;points=[[0,0.5],[1,0.5]];portConstraint=eastwest;" vertex="1" parent="fgCC3ogbLAb3C-D56_0G-17">
          <mxGeometry width="375" height="58" as="geometry" />
        </mxCell>
        <mxCell id="fgCC3ogbLAb3C-D56_0G-19" value="Manager" style="shape=partialRectangle;html=1;whiteSpace=wrap;connectable=0;strokeColor=inherit;overflow=hidden;fillColor=none;top=0;left=0;bottom=0;right=0;pointerEvents=1;fontSize=15;" vertex="1" parent="fgCC3ogbLAb3C-D56_0G-18">
          <mxGeometry width="188" height="58" as="geometry">
            <mxRectangle width="188" height="58" as="alternateBounds" />
          </mxGeometry>
        </mxCell>
        <mxCell id="fgCC3ogbLAb3C-D56_0G-20" value="System" style="shape=partialRectangle;html=1;whiteSpace=wrap;connectable=0;strokeColor=inherit;overflow=hidden;fillColor=none;top=0;left=0;bottom=0;right=0;pointerEvents=1;fontSize=15;" vertex="1" parent="fgCC3ogbLAb3C-D56_0G-18">
          <mxGeometry x="188" width="187" height="58" as="geometry">
            <mxRectangle width="187" height="58" as="alternateBounds" />
          </mxGeometry>
        </mxCell>
        <mxCell id="fgCC3ogbLAb3C-D56_0G-21" value="" style="shape=tableRow;horizontal=0;startSize=0;swimlaneHead=0;swimlaneBody=0;strokeColor=inherit;top=0;left=0;bottom=0;right=0;collapsible=0;dropTarget=0;fillColor=none;points=[[0,0.5],[1,0.5]];portConstraint=eastwest;" vertex="1" parent="fgCC3ogbLAb3C-D56_0G-17">
          <mxGeometry y="58" width="375" height="754" as="geometry" />
        </mxCell>
        <mxCell id="fgCC3ogbLAb3C-D56_0G-22" value="" style="shape=partialRectangle;html=1;whiteSpace=wrap;connectable=0;strokeColor=inherit;overflow=hidden;fillColor=none;top=0;left=0;bottom=0;right=0;pointerEvents=1;" vertex="1" parent="fgCC3ogbLAb3C-D56_0G-21">
          <mxGeometry width="188" height="754" as="geometry">
            <mxRectangle width="188" height="754" as="alternateBounds" />
          </mxGeometry>
        </mxCell>
        <mxCell id="fgCC3ogbLAb3C-D56_0G-23" value="" style="shape=partialRectangle;html=1;whiteSpace=wrap;connectable=0;strokeColor=inherit;overflow=hidden;fillColor=none;top=0;left=0;bottom=0;right=0;pointerEvents=1;" vertex="1" parent="fgCC3ogbLAb3C-D56_0G-21">
          <mxGeometry x="188" width="187" height="754" as="geometry">
            <mxRectangle width="187" height="754" as="alternateBounds" />
          </mxGeometry>
        </mxCell>
        <mxCell id="fgCC3ogbLAb3C-D56_0G-24" value="" style="shape=table;startSize=0;container=1;collapsible=0;childLayout=tableLayout;" vertex="1" parent="1">
          <mxGeometry x="2747" y="2450" width="375" height="903.5803108850254" as="geometry" />
        </mxCell>
        <mxCell id="fgCC3ogbLAb3C-D56_0G-25" value="" style="shape=tableRow;horizontal=0;startSize=0;swimlaneHead=0;swimlaneBody=0;strokeColor=inherit;top=0;left=0;bottom=0;right=0;collapsible=0;dropTarget=0;fillColor=none;points=[[0,0.5],[1,0.5]];portConstraint=eastwest;" vertex="1" parent="fgCC3ogbLAb3C-D56_0G-24">
          <mxGeometry width="375" height="58" as="geometry" />
        </mxCell>
        <mxCell id="fgCC3ogbLAb3C-D56_0G-26" value="Manager" style="shape=partialRectangle;html=1;whiteSpace=wrap;connectable=0;strokeColor=inherit;overflow=hidden;fillColor=none;top=0;left=0;bottom=0;right=0;pointerEvents=1;fontSize=15;" vertex="1" parent="fgCC3ogbLAb3C-D56_0G-25">
          <mxGeometry width="188" height="58" as="geometry">
            <mxRectangle width="188" height="58" as="alternateBounds" />
          </mxGeometry>
        </mxCell>
        <mxCell id="fgCC3ogbLAb3C-D56_0G-27" value="System" style="shape=partialRectangle;html=1;whiteSpace=wrap;connectable=0;strokeColor=inherit;overflow=hidden;fillColor=none;top=0;left=0;bottom=0;right=0;pointerEvents=1;fontSize=15;" vertex="1" parent="fgCC3ogbLAb3C-D56_0G-25">
          <mxGeometry x="188" width="187" height="58" as="geometry">
            <mxRectangle width="187" height="58" as="alternateBounds" />
          </mxGeometry>
        </mxCell>
        <mxCell id="fgCC3ogbLAb3C-D56_0G-28" value="" style="shape=tableRow;horizontal=0;startSize=0;swimlaneHead=0;swimlaneBody=0;strokeColor=inherit;top=0;left=0;bottom=0;right=0;collapsible=0;dropTarget=0;fillColor=none;points=[[0,0.5],[1,0.5]];portConstraint=eastwest;" vertex="1" parent="fgCC3ogbLAb3C-D56_0G-24">
          <mxGeometry y="58" width="375" height="846" as="geometry" />
        </mxCell>
        <mxCell id="fgCC3ogbLAb3C-D56_0G-29" value="" style="shape=partialRectangle;html=1;whiteSpace=wrap;connectable=0;strokeColor=inherit;overflow=hidden;fillColor=none;top=0;left=0;bottom=0;right=0;pointerEvents=1;" vertex="1" parent="fgCC3ogbLAb3C-D56_0G-28">
          <mxGeometry width="188" height="846" as="geometry">
            <mxRectangle width="188" height="846" as="alternateBounds" />
          </mxGeometry>
        </mxCell>
        <mxCell id="fgCC3ogbLAb3C-D56_0G-30" value="" style="shape=partialRectangle;html=1;whiteSpace=wrap;connectable=0;strokeColor=inherit;overflow=hidden;fillColor=none;top=0;left=0;bottom=0;right=0;pointerEvents=1;" vertex="1" parent="fgCC3ogbLAb3C-D56_0G-28">
          <mxGeometry x="188" width="187" height="846" as="geometry">
            <mxRectangle width="187" height="846" as="alternateBounds" />
          </mxGeometry>
        </mxCell>
        <mxCell id="fgCC3ogbLAb3C-D56_0G-31" value="Remove Menu" style="text;html=1;strokeColor=none;fillColor=none;align=center;verticalAlign=middle;whiteSpace=wrap;rounded=0;" vertex="1" parent="1">
          <mxGeometry x="1887" y="2418" width="100" height="30" as="geometry" />
        </mxCell>
        <mxCell id="fgCC3ogbLAb3C-D56_0G-32" value="Set Categories" style="text;html=1;strokeColor=none;fillColor=none;align=center;verticalAlign=middle;whiteSpace=wrap;rounded=0;" vertex="1" parent="1">
          <mxGeometry x="2747" y="2420" width="100" height="30" as="geometry" />
        </mxCell>
        <mxCell id="fgCC3ogbLAb3C-D56_0G-45" style="edgeStyle=orthogonalEdgeStyle;rounded=0;orthogonalLoop=1;jettySize=auto;html=1;exitX=0.5;exitY=1;exitDx=0;exitDy=0;entryX=0.5;entryY=0;entryDx=0;entryDy=0;" edge="1" parent="1" source="fgCC3ogbLAb3C-D56_0G-33" target="fgCC3ogbLAb3C-D56_0G-34">
          <mxGeometry relative="1" as="geometry" />
        </mxCell>
        <mxCell id="fgCC3ogbLAb3C-D56_0G-33" value="" style="ellipse;whiteSpace=wrap;html=1;aspect=fixed;fillColor=#000000;" vertex="1" parent="1">
          <mxGeometry x="3608.49" y="1377" width="50" height="50" as="geometry" />
        </mxCell>
        <mxCell id="fgCC3ogbLAb3C-D56_0G-44" style="edgeStyle=orthogonalEdgeStyle;rounded=0;orthogonalLoop=1;jettySize=auto;html=1;exitX=1;exitY=0.5;exitDx=0;exitDy=0;entryX=0.5;entryY=0;entryDx=0;entryDy=0;" edge="1" parent="1" source="fgCC3ogbLAb3C-D56_0G-34" target="fgCC3ogbLAb3C-D56_0G-35">
          <mxGeometry relative="1" as="geometry" />
        </mxCell>
        <mxCell id="fgCC3ogbLAb3C-D56_0G-34" value="Edit Menu" style="rounded=1;whiteSpace=wrap;html=1;" vertex="1" parent="1">
          <mxGeometry x="3572.99" y="1472" width="120" height="60" as="geometry" />
        </mxCell>
        <mxCell id="fgCC3ogbLAb3C-D56_0G-46" style="edgeStyle=orthogonalEdgeStyle;rounded=0;orthogonalLoop=1;jettySize=auto;html=1;exitX=0;exitY=0.5;exitDx=0;exitDy=0;entryX=0.5;entryY=0;entryDx=0;entryDy=0;" edge="1" parent="1" source="fgCC3ogbLAb3C-D56_0G-35" target="fgCC3ogbLAb3C-D56_0G-36">
          <mxGeometry relative="1" as="geometry" />
        </mxCell>
        <mxCell id="fgCC3ogbLAb3C-D56_0G-35" value="Retrieve product details from the system" style="rounded=1;whiteSpace=wrap;html=1;" vertex="1" parent="1">
          <mxGeometry x="3761" y="1576" width="120" height="60" as="geometry" />
        </mxCell>
        <mxCell id="fgCC3ogbLAb3C-D56_0G-47" style="edgeStyle=orthogonalEdgeStyle;rounded=0;orthogonalLoop=1;jettySize=auto;html=1;exitX=1;exitY=0.5;exitDx=0;exitDy=0;entryX=0.5;entryY=0;entryDx=0;entryDy=0;" edge="1" parent="1" source="fgCC3ogbLAb3C-D56_0G-36" target="fgCC3ogbLAb3C-D56_0G-37">
          <mxGeometry relative="1" as="geometry" />
        </mxCell>
        <mxCell id="fgCC3ogbLAb3C-D56_0G-36" value="Edit Menu info" style="rounded=1;whiteSpace=wrap;html=1;" vertex="1" parent="1">
          <mxGeometry x="3573.49" y="1661" width="120" height="60" as="geometry" />
        </mxCell>
        <mxCell id="fgCC3ogbLAb3C-D56_0G-83" style="edgeStyle=orthogonalEdgeStyle;rounded=0;orthogonalLoop=1;jettySize=auto;html=1;exitX=0;exitY=0.5;exitDx=0;exitDy=0;entryX=0.5;entryY=0;entryDx=0;entryDy=0;" edge="1" parent="1" source="fgCC3ogbLAb3C-D56_0G-37" target="fgCC3ogbLAb3C-D56_0G-82">
          <mxGeometry relative="1" as="geometry" />
        </mxCell>
        <mxCell id="fgCC3ogbLAb3C-D56_0G-37" value="Update Menu" style="rounded=1;whiteSpace=wrap;html=1;" vertex="1" parent="1">
          <mxGeometry x="3761" y="1763" width="120" height="60" as="geometry" />
        </mxCell>
        <mxCell id="fgCC3ogbLAb3C-D56_0G-38" value="" style="ellipse;whiteSpace=wrap;html=1;aspect=fixed;" vertex="1" parent="1">
          <mxGeometry x="3607.99" y="1958" width="50" height="50" as="geometry" />
        </mxCell>
        <mxCell id="fgCC3ogbLAb3C-D56_0G-39" value="" style="ellipse;whiteSpace=wrap;html=1;aspect=fixed;fillColor=#000000;" vertex="1" parent="1">
          <mxGeometry x="3612.99" y="1963" width="40" height="40" as="geometry" />
        </mxCell>
        <mxCell id="fgCC3ogbLAb3C-D56_0G-75" style="edgeStyle=orthogonalEdgeStyle;rounded=0;orthogonalLoop=1;jettySize=auto;html=1;exitX=0.5;exitY=1;exitDx=0;exitDy=0;entryX=0.5;entryY=0;entryDx=0;entryDy=0;" edge="1" parent="1" source="fgCC3ogbLAb3C-D56_0G-56" target="fgCC3ogbLAb3C-D56_0G-57">
          <mxGeometry relative="1" as="geometry" />
        </mxCell>
        <mxCell id="fgCC3ogbLAb3C-D56_0G-56" value="" style="ellipse;whiteSpace=wrap;html=1;aspect=fixed;fillColor=#000000;" vertex="1" parent="1">
          <mxGeometry x="1955" y="2548" width="50" height="50" as="geometry" />
        </mxCell>
        <mxCell id="fgCC3ogbLAb3C-D56_0G-59" style="edgeStyle=orthogonalEdgeStyle;rounded=0;orthogonalLoop=1;jettySize=auto;html=1;exitX=0.5;exitY=1;exitDx=0;exitDy=0;entryX=0.5;entryY=0;entryDx=0;entryDy=0;" edge="1" parent="1" source="fgCC3ogbLAb3C-D56_0G-57" target="fgCC3ogbLAb3C-D56_0G-58">
          <mxGeometry relative="1" as="geometry" />
        </mxCell>
        <mxCell id="fgCC3ogbLAb3C-D56_0G-57" value="Remove Menu" style="rounded=1;whiteSpace=wrap;html=1;" vertex="1" parent="1">
          <mxGeometry x="1920" y="2635" width="120" height="60" as="geometry" />
        </mxCell>
        <mxCell id="fgCC3ogbLAb3C-D56_0G-65" style="edgeStyle=orthogonalEdgeStyle;rounded=0;orthogonalLoop=1;jettySize=auto;html=1;exitX=1;exitY=0.5;exitDx=0;exitDy=0;entryX=0;entryY=0.5;entryDx=0;entryDy=0;" edge="1" parent="1" source="fgCC3ogbLAb3C-D56_0G-58" target="fgCC3ogbLAb3C-D56_0G-61">
          <mxGeometry relative="1" as="geometry" />
        </mxCell>
        <mxCell id="fgCC3ogbLAb3C-D56_0G-73" value="Yes" style="edgeLabel;html=1;align=center;verticalAlign=middle;resizable=0;points=[];" connectable="0" vertex="1" parent="fgCC3ogbLAb3C-D56_0G-65">
          <mxGeometry x="-0.665" y="2" relative="1" as="geometry">
            <mxPoint as="offset" />
          </mxGeometry>
        </mxCell>
        <mxCell id="fgCC3ogbLAb3C-D56_0G-66" style="edgeStyle=orthogonalEdgeStyle;rounded=0;orthogonalLoop=1;jettySize=auto;html=1;exitX=0.5;exitY=1;exitDx=0;exitDy=0;entryX=0.5;entryY=0;entryDx=0;entryDy=0;" edge="1" parent="1" source="fgCC3ogbLAb3C-D56_0G-58" target="fgCC3ogbLAb3C-D56_0G-60">
          <mxGeometry relative="1" as="geometry" />
        </mxCell>
        <mxCell id="fgCC3ogbLAb3C-D56_0G-74" value="No" style="edgeLabel;html=1;align=center;verticalAlign=middle;resizable=0;points=[];" connectable="0" vertex="1" parent="fgCC3ogbLAb3C-D56_0G-66">
          <mxGeometry x="0.2848" y="3" relative="1" as="geometry">
            <mxPoint x="-3" y="-1" as="offset" />
          </mxGeometry>
        </mxCell>
        <mxCell id="fgCC3ogbLAb3C-D56_0G-58" value="" style="rhombus;whiteSpace=wrap;html=1;" vertex="1" parent="1">
          <mxGeometry x="1939" y="2755" width="82" height="63.82" as="geometry" />
        </mxCell>
        <mxCell id="fgCC3ogbLAb3C-D56_0G-70" style="edgeStyle=orthogonalEdgeStyle;rounded=0;orthogonalLoop=1;jettySize=auto;html=1;exitX=0.5;exitY=1;exitDx=0;exitDy=0;" edge="1" parent="1" source="fgCC3ogbLAb3C-D56_0G-60" target="fgCC3ogbLAb3C-D56_0G-68">
          <mxGeometry relative="1" as="geometry" />
        </mxCell>
        <mxCell id="fgCC3ogbLAb3C-D56_0G-60" value="Cancle" style="rounded=1;whiteSpace=wrap;html=1;" vertex="1" parent="1">
          <mxGeometry x="1920" y="2895" width="120" height="60" as="geometry" />
        </mxCell>
        <mxCell id="fgCC3ogbLAb3C-D56_0G-69" style="edgeStyle=orthogonalEdgeStyle;rounded=0;orthogonalLoop=1;jettySize=auto;html=1;exitX=0.5;exitY=1;exitDx=0;exitDy=0;entryX=0.5;entryY=0;entryDx=0;entryDy=0;" edge="1" parent="1" source="fgCC3ogbLAb3C-D56_0G-61" target="fgCC3ogbLAb3C-D56_0G-67">
          <mxGeometry relative="1" as="geometry" />
        </mxCell>
        <mxCell id="fgCC3ogbLAb3C-D56_0G-61" value="Delete Food form system" style="rounded=1;whiteSpace=wrap;html=1;" vertex="1" parent="1">
          <mxGeometry x="2112" y="2756.91" width="120" height="60" as="geometry" />
        </mxCell>
        <mxCell id="fgCC3ogbLAb3C-D56_0G-71" style="edgeStyle=orthogonalEdgeStyle;rounded=0;orthogonalLoop=1;jettySize=auto;html=1;exitX=0.5;exitY=1;exitDx=0;exitDy=0;entryX=1;entryY=0.5;entryDx=0;entryDy=0;" edge="1" parent="1" source="fgCC3ogbLAb3C-D56_0G-67" target="fgCC3ogbLAb3C-D56_0G-68">
          <mxGeometry relative="1" as="geometry" />
        </mxCell>
        <mxCell id="fgCC3ogbLAb3C-D56_0G-67" value="Update Menu" style="rounded=1;whiteSpace=wrap;html=1;" vertex="1" parent="1">
          <mxGeometry x="2112" y="2895" width="120" height="60" as="geometry" />
        </mxCell>
        <mxCell id="fgCC3ogbLAb3C-D56_0G-78" style="edgeStyle=orthogonalEdgeStyle;rounded=0;orthogonalLoop=1;jettySize=auto;html=1;exitX=0.5;exitY=1;exitDx=0;exitDy=0;entryX=0.5;entryY=0;entryDx=0;entryDy=0;" edge="1" parent="1" source="fgCC3ogbLAb3C-D56_0G-68" target="fgCC3ogbLAb3C-D56_0G-76">
          <mxGeometry relative="1" as="geometry" />
        </mxCell>
        <mxCell id="fgCC3ogbLAb3C-D56_0G-68" value="Display Menu" style="rounded=1;whiteSpace=wrap;html=1;" vertex="1" parent="1">
          <mxGeometry x="1920" y="3044" width="120" height="60" as="geometry" />
        </mxCell>
        <mxCell id="fgCC3ogbLAb3C-D56_0G-76" value="" style="ellipse;whiteSpace=wrap;html=1;aspect=fixed;" vertex="1" parent="1">
          <mxGeometry x="1955" y="3182" width="50" height="50" as="geometry" />
        </mxCell>
        <mxCell id="fgCC3ogbLAb3C-D56_0G-77" value="" style="ellipse;whiteSpace=wrap;html=1;aspect=fixed;fillColor=#000000;" vertex="1" parent="1">
          <mxGeometry x="1960" y="3187" width="40" height="40" as="geometry" />
        </mxCell>
        <mxCell id="fgCC3ogbLAb3C-D56_0G-81" style="edgeStyle=orthogonalEdgeStyle;rounded=0;orthogonalLoop=1;jettySize=auto;html=1;exitX=0.5;exitY=1;exitDx=0;exitDy=0;entryX=0.5;entryY=0;entryDx=0;entryDy=0;" edge="1" parent="1" source="fgCC3ogbLAb3C-D56_0G-79" target="fgCC3ogbLAb3C-D56_0G-11">
          <mxGeometry relative="1" as="geometry" />
        </mxCell>
        <mxCell id="fgCC3ogbLAb3C-D56_0G-79" value="Display Menu" style="rounded=1;whiteSpace=wrap;html=1;" vertex="1" parent="1">
          <mxGeometry x="2787" y="1780" width="120" height="60" as="geometry" />
        </mxCell>
        <mxCell id="fgCC3ogbLAb3C-D56_0G-84" style="edgeStyle=orthogonalEdgeStyle;rounded=0;orthogonalLoop=1;jettySize=auto;html=1;exitX=0.5;exitY=1;exitDx=0;exitDy=0;entryX=0.5;entryY=0;entryDx=0;entryDy=0;" edge="1" parent="1" source="fgCC3ogbLAb3C-D56_0G-82" target="fgCC3ogbLAb3C-D56_0G-38">
          <mxGeometry relative="1" as="geometry" />
        </mxCell>
        <mxCell id="fgCC3ogbLAb3C-D56_0G-82" value="Display Menu" style="rounded=1;whiteSpace=wrap;html=1;" vertex="1" parent="1">
          <mxGeometry x="3573.49" y="1850" width="120" height="60" as="geometry" />
        </mxCell>
        <mxCell id="fgCC3ogbLAb3C-D56_0G-100" style="edgeStyle=orthogonalEdgeStyle;rounded=0;orthogonalLoop=1;jettySize=auto;html=1;exitX=0.5;exitY=1;exitDx=0;exitDy=0;entryX=0.5;entryY=0;entryDx=0;entryDy=0;" edge="1" parent="1" source="fgCC3ogbLAb3C-D56_0G-85" target="fgCC3ogbLAb3C-D56_0G-87">
          <mxGeometry relative="1" as="geometry" />
        </mxCell>
        <mxCell id="fgCC3ogbLAb3C-D56_0G-85" value="" style="ellipse;whiteSpace=wrap;html=1;aspect=fixed;fillColor=#000000;" vertex="1" parent="1">
          <mxGeometry x="2818" y="2548" width="50" height="50" as="geometry" />
        </mxCell>
        <mxCell id="fgCC3ogbLAb3C-D56_0G-99" style="edgeStyle=orthogonalEdgeStyle;rounded=0;orthogonalLoop=1;jettySize=auto;html=1;exitX=0.5;exitY=1;exitDx=0;exitDy=0;entryX=0.5;entryY=0;entryDx=0;entryDy=0;" edge="1" parent="1" source="fgCC3ogbLAb3C-D56_0G-87" target="fgCC3ogbLAb3C-D56_0G-88">
          <mxGeometry relative="1" as="geometry" />
        </mxCell>
        <mxCell id="fgCC3ogbLAb3C-D56_0G-87" value="Set Categories" style="rounded=1;whiteSpace=wrap;html=1;" vertex="1" parent="1">
          <mxGeometry x="2783" y="2635" width="120" height="60" as="geometry" />
        </mxCell>
        <mxCell id="fgCC3ogbLAb3C-D56_0G-101" style="edgeStyle=orthogonalEdgeStyle;rounded=0;orthogonalLoop=1;jettySize=auto;html=1;exitX=1;exitY=0.5;exitDx=0;exitDy=0;entryX=0.5;entryY=0;entryDx=0;entryDy=0;" edge="1" parent="1" source="fgCC3ogbLAb3C-D56_0G-88" target="fgCC3ogbLAb3C-D56_0G-89">
          <mxGeometry relative="1" as="geometry" />
        </mxCell>
        <mxCell id="fgCC3ogbLAb3C-D56_0G-88" value="Fill in Categories info" style="rounded=1;whiteSpace=wrap;html=1;" vertex="1" parent="1">
          <mxGeometry x="2783" y="2741.1800000000003" width="120" height="60" as="geometry" />
        </mxCell>
        <mxCell id="fgCC3ogbLAb3C-D56_0G-102" style="edgeStyle=orthogonalEdgeStyle;rounded=0;orthogonalLoop=1;jettySize=auto;html=1;exitX=0.5;exitY=1;exitDx=0;exitDy=0;entryX=0.5;entryY=0;entryDx=0;entryDy=0;" edge="1" parent="1" source="fgCC3ogbLAb3C-D56_0G-89" target="fgCC3ogbLAb3C-D56_0G-90">
          <mxGeometry relative="1" as="geometry" />
        </mxCell>
        <mxCell id="fgCC3ogbLAb3C-D56_0G-89" value="Save Categories" style="rounded=1;whiteSpace=wrap;html=1;" vertex="1" parent="1">
          <mxGeometry x="2970" y="2835.0000000000005" width="120" height="60" as="geometry" />
        </mxCell>
        <mxCell id="fgCC3ogbLAb3C-D56_0G-107" style="edgeStyle=orthogonalEdgeStyle;rounded=0;orthogonalLoop=1;jettySize=auto;html=1;exitX=0.5;exitY=1;exitDx=0;exitDy=0;entryX=0.5;entryY=0;entryDx=0;entryDy=0;" edge="1" parent="1" source="fgCC3ogbLAb3C-D56_0G-90" target="fgCC3ogbLAb3C-D56_0G-106">
          <mxGeometry relative="1" as="geometry" />
        </mxCell>
        <mxCell id="fgCC3ogbLAb3C-D56_0G-90" value="Retrieve Menu data" style="rounded=1;whiteSpace=wrap;html=1;" vertex="1" parent="1">
          <mxGeometry x="2970" y="2941" width="120" height="60" as="geometry" />
        </mxCell>
        <mxCell id="fgCC3ogbLAb3C-D56_0G-105" style="edgeStyle=orthogonalEdgeStyle;rounded=0;orthogonalLoop=1;jettySize=auto;html=1;exitX=0.5;exitY=1;exitDx=0;exitDy=0;entryX=0.5;entryY=0;entryDx=0;entryDy=0;" edge="1" parent="1" source="fgCC3ogbLAb3C-D56_0G-91" target="fgCC3ogbLAb3C-D56_0G-96">
          <mxGeometry relative="1" as="geometry" />
        </mxCell>
        <mxCell id="fgCC3ogbLAb3C-D56_0G-91" value="Display Menu" style="rounded=1;whiteSpace=wrap;html=1;" vertex="1" parent="1">
          <mxGeometry x="2787" y="3135" width="120" height="60" as="geometry" />
        </mxCell>
        <mxCell id="fgCC3ogbLAb3C-D56_0G-92" value="" style="ellipse;whiteSpace=wrap;html=1;aspect=fixed;fillColor=#000000;" vertex="1" parent="1">
          <mxGeometry x="1960" y="3187" width="40" height="40" as="geometry" />
        </mxCell>
        <mxCell id="fgCC3ogbLAb3C-D56_0G-96" value="" style="ellipse;whiteSpace=wrap;html=1;aspect=fixed;" vertex="1" parent="1">
          <mxGeometry x="2822" y="3251" width="50" height="50" as="geometry" />
        </mxCell>
        <mxCell id="fgCC3ogbLAb3C-D56_0G-97" value="" style="ellipse;whiteSpace=wrap;html=1;aspect=fixed;fillColor=#000000;" vertex="1" parent="1">
          <mxGeometry x="2827" y="3256" width="40" height="40" as="geometry" />
        </mxCell>
        <mxCell id="fgCC3ogbLAb3C-D56_0G-98" value="" style="ellipse;whiteSpace=wrap;html=1;aspect=fixed;fillColor=#000000;" vertex="1" parent="1">
          <mxGeometry x="2827" y="3256" width="40" height="40" as="geometry" />
        </mxCell>
        <mxCell id="fgCC3ogbLAb3C-D56_0G-108" style="edgeStyle=orthogonalEdgeStyle;rounded=0;orthogonalLoop=1;jettySize=auto;html=1;exitX=0;exitY=0.5;exitDx=0;exitDy=0;entryX=0.5;entryY=0;entryDx=0;entryDy=0;" edge="1" parent="1" source="fgCC3ogbLAb3C-D56_0G-106" target="fgCC3ogbLAb3C-D56_0G-91">
          <mxGeometry relative="1" as="geometry" />
        </mxCell>
        <mxCell id="fgCC3ogbLAb3C-D56_0G-106" value="Update Menu" style="rounded=1;whiteSpace=wrap;html=1;" vertex="1" parent="1">
          <mxGeometry x="2970" y="3041" width="120" height="60" as="geometry" />
        </mxCell>
      </root>
    </mxGraphModel>
  </diagram>
</mxfile>
